<svg width="21" height="19" viewBox="0 0 21 19" fill="none" xmlns="http://www.w3.org/2000/svg">
<path fill-rule="evenodd" clip-rule="evenodd" d="M19.3082 1.80615C18.7542 1.23328 18.0914 0.778197 17.3591 0.467953C16.6269 0.157708 15.8403 -0.00139835 15.0458 7.78435e-05C12.1691 7.78435e-05 9.97486 1.67941 8.54704 4.84791C8.48022 4.97547 8.44007 5.11543 8.42907 5.25919C8.41806 5.40295 8.43641 5.5474 8.48302 5.68374C8.52963 5.82009 8.60348 5.94542 8.70006 6.05196C8.79663 6.15849 8.91387 6.24401 9.04455 6.30324C9.17522 6.36246 9.31654 6.39413 9.45984 6.39632C9.60315 6.39851 9.74543 6.37114 9.87783 6.31594C10.0102 6.26073 10.1299 6.17883 10.2297 6.0753C10.3294 5.97176 10.4071 5.84877 10.4578 5.71391C11.5602 3.25304 13.0615 2.11241 15.0458 2.11241C15.5589 2.11259 16.0668 2.21646 16.5393 2.41784C17.0118 2.61922 17.4393 2.91401 17.7964 3.28474C18.5191 4.03218 18.9288 5.03038 18.9407 6.07304C18.9407 8.76626 17.366 11.4172 14.5733 13.8676C13.5849 14.7263 12.5319 15.5067 11.4237 16.2017L10.5103 16.7509C9.05976 15.9174 7.69521 14.941 6.43678 13.8358C3.67561 11.3855 2.06931 8.7557 2.11131 6.07304C2.12328 5.03038 2.53292 4.03218 3.25564 3.28474C3.61397 2.91273 4.0432 2.6172 4.51761 2.41578C4.99202 2.21435 5.50188 2.11117 6.01681 2.11241C6.54353 2.10911 7.0665 2.20217 7.56015 2.38703C7.68906 2.43626 7.82634 2.45949 7.96417 2.45536C8.102 2.45122 8.23769 2.4198 8.36345 2.36292C8.48921 2.30603 8.60256 2.22479 8.69711 2.12382C8.79166 2.02285 8.86552 1.90411 8.91447 1.77443C8.96341 1.64475 8.9865 1.50664 8.98239 1.36799C8.97828 1.22934 8.94704 1.09283 8.8905 0.966319C8.83396 0.839803 8.7532 0.725775 8.65283 0.630658C8.55246 0.535541 8.43443 0.461236 8.30552 0.411998C7.57386 0.135822 6.79827 -0.00378049 6.01681 7.78435e-05C5.2223 -0.00139835 4.43563 0.157708 3.70342 0.467953C2.97121 0.778197 2.30837 1.23328 1.75432 1.80615C0.653714 2.93656 0.0261806 4.44869 0.00105435 6.03082C-0.0514393 9.46336 1.85932 12.6002 5.04043 15.4096C6.43901 16.6393 7.95871 17.7222 9.57589 18.6415L10.0273 18.8844C10.1752 18.9604 10.339 19 10.505 19C10.6711 19 10.8349 18.9604 10.9827 18.8844C12.7484 17.9227 14.4032 16.768 15.9171 15.4412C19.1192 12.6213 21.0615 9.46335 20.9985 6.02024C20.9877 4.45054 20.3833 2.94384 19.3082 1.80615Z" fill="#EB5757"/>
</svg>
