<svg width="26" height="25" viewBox="0 0 26 25" fill="none" xmlns="http://www.w3.org/2000/svg">
<path d="M0.679387 14.7385C0.38547 14.9107 0.173961 15.1886 0.0912212 15.5115C0.00848156 15.8344 0.0612199 16.176 0.237906 16.4613L2.83465 20.6615C3.0103 20.9482 3.29639 21.1557 3.62996 21.2383C3.96353 21.3208 4.31725 21.2717 4.61341 21.1016C7.21015 19.7561 9.1318 20.8501 9.14478 23.7425C9.14478 24.076 9.28152 24.3958 9.52501 24.6317C9.7685 24.8675 10.0988 25 10.4432 25H15.6366C15.981 25 16.3112 24.8675 16.5547 24.6317C16.7982 24.3958 16.935 24.076 16.935 23.7425C16.935 23.4089 16.7982 23.0891 16.5547 22.8533C16.3112 22.6174 15.981 22.4849 15.6366 22.4849H11.6376C11.5744 21.696 11.316 20.9334 10.8843 20.2616C10.4526 19.5897 9.86023 19.0284 9.1573 18.6251C8.45438 18.2218 7.66152 17.9883 6.84577 17.9443C6.03002 17.9004 5.21536 18.0474 4.4706 18.3727L3.12391 16.3558C3.12292 16.3565 3.12194 16.3571 3.12095 16.3577L3.06834 16.2726L3.15151 16.2171L3.15283 16.2191C3.76348 15.8227 4.26718 15.2896 4.62086 14.6644C4.99071 14.0105 5.18461 13.277 5.18461 12.5315C5.18461 11.7859 4.99071 11.0523 4.62086 10.3985C4.251 9.74461 3.71707 9.19153 3.06834 8.79023L4.36671 6.58952C5.11328 6.91469 5.92967 7.06111 6.74695 7.01643C7.56423 6.97176 8.35847 6.73732 9.06253 6.33286C9.76658 5.92839 10.3598 5.36576 10.7922 4.69254C11.2245 4.01931 11.4834 3.25528 11.5467 2.46482H14.3383C14.3995 3.25485 14.6565 4.01889 15.0874 4.69231C15.5183 5.36573 16.1104 5.92869 16.8136 6.33339C17.5168 6.7381 18.3104 6.97269 19.1271 7.01728C19.9438 7.06187 20.7595 6.91512 21.5052 6.58952L22.8036 8.79023C22.1549 9.19153 21.6209 9.74461 21.2511 10.3985C20.8812 11.0523 20.6873 11.7859 20.6873 12.5315C20.6873 13.277 20.8812 14.0105 21.2511 14.6644C21.6209 15.3182 22.1549 15.8713 22.8036 16.2726L22.751 16.3577L21.4273 18.4985C20.4713 18.1869 19.456 18.0838 18.4541 18.1967L16.896 15.845C17.7383 14.9319 18.2077 13.7525 18.2163 12.5281C18.2248 11.3036 17.7721 10.1181 16.9427 9.19396C16.1133 8.26978 14.9644 7.67042 13.7113 7.50812C12.4582 7.34582 11.187 7.63179 10.1361 8.31243C9.08514 8.99307 8.32665 10.0216 8.00277 11.2052C7.67888 12.3888 7.81187 13.6463 8.37681 14.7417C8.94174 15.8371 9.89983 16.6953 11.0714 17.1555C12.243 17.6156 13.5477 17.646 14.7408 17.241L16.9869 20.2842C17.1437 20.4982 17.3657 20.6594 17.6218 20.7451C17.8779 20.8308 18.1553 20.8367 18.4151 20.7621C19.443 20.5026 20.5344 20.633 21.4663 21.1267C21.7613 21.2928 22.1119 21.3397 22.4424 21.2574C22.7728 21.175 23.0565 20.97 23.2321 20.6866M0.679387 14.7385L0.725055 14.8274C0.725897 14.827 0.726739 14.8266 0.727581 14.8261M0.679387 14.7385L0.729937 14.8247C0.729151 14.8252 0.728366 14.8257 0.727581 14.8261M0.679387 14.7385C3.27613 13.4055 3.18524 11.5066 0.679387 10.249C0.529045 10.17 0.396317 10.0631 0.288782 9.93425C0.181247 9.80544 0.101045 9.65728 0.0527868 9.49836C0.00452822 9.33944 -0.0108721 9.1729 0.0075372 9.00821L2.84175 4.39121L0.246096 8.58962C0.170991 8.72273 0.123748 8.86876 0.106918 9.01932C0.0900233 9.17046 0.104147 9.32334 0.148472 9.46931C0.192797 9.61527 0.266517 9.75154 0.365548 9.87017C0.464413 9.98859 0.586551 10.0872 0.725114 10.1601C1.9881 10.7941 2.68068 11.6084 2.69285 12.464C2.70503 13.3204 2.03501 14.1544 0.727581 14.8261M0.727581 14.8261C0.457343 14.9853 0.263826 15.2408 0.188092 15.5364C0.112157 15.8327 0.160457 16.1463 0.322924 16.4086L0.322963 16.4087L2.9197 20.6089L2.91992 20.6092C3.08151 20.8731 3.34531 21.0648 3.65398 21.1412C3.96271 21.2176 4.28997 21.172 4.56361 21.0149L4.56736 21.0128L4.5674 21.0129C5.88151 20.3319 7.05007 20.2555 7.8981 20.7463C8.74734 21.2378 9.2382 22.2766 9.24478 23.742L9.24479 23.7425C9.24478 24.0484 9.37019 24.3425 9.59458 24.5598C9.81909 24.7773 10.1243 24.9 10.4432 24.9H15.6366C15.9555 24.9 16.2606 24.7773 16.4851 24.5598C16.7095 24.3425 16.835 24.0484 16.835 23.7425C16.835 23.4365 16.7095 23.1424 16.4851 22.9251C16.2606 22.7076 15.9555 22.5849 15.6366 22.5849H11.6376H11.5453L11.538 22.4929C11.4761 21.7205 11.2231 20.9737 10.8002 20.3156C10.3773 19.6575 9.79677 19.1073 9.10754 18.7118C8.41829 18.3164 7.64065 18.0873 6.8404 18.0442C6.04013 18.0011 5.24103 18.1453 4.51064 18.4643L4.43393 18.4979L4.38744 18.4282L2.98518 16.3282L2.92768 16.2421L3.01574 16.1876C3.65039 15.795 4.17237 15.2541 4.53382 14.6152C4.89525 13.9762 5.08461 13.2596 5.08461 12.5315C5.08461 11.8033 4.89525 11.0867 4.53382 10.4477C4.17237 9.80873 3.65039 9.26787 3.01574 8.87527L2.93246 8.82375L2.98222 8.73941L4.28059 6.53871L4.32554 6.46252L4.40664 6.49784C5.13885 6.81675 5.93969 6.96041 6.74149 6.91658C7.5433 6.87275 8.32233 6.64276 9.01271 6.24615C9.70308 5.84954 10.2844 5.29804 10.708 4.6385C11.1316 3.97898 11.385 3.23074 11.4471 2.45682L11.4544 2.36482H11.5467H14.3383H14.4308L14.438 2.45708C14.498 3.23054 14.7495 3.97874 15.1716 4.63841C15.5937 5.2981 16.174 5.8499 16.8635 6.24672C17.553 6.64355 18.3314 6.87368 19.1326 6.91743C19.9337 6.96117 20.7339 6.8172 21.4652 6.49788L21.5463 6.46245L21.5913 6.53871L22.8897 8.73941L22.9395 8.82375L22.8562 8.87527C22.2215 9.26787 21.6996 9.80873 21.3381 10.4477C20.9767 11.0867 20.7873 11.8033 20.7873 12.5315C20.7873 13.2596 20.9767 13.9762 21.3381 14.6152C21.6996 15.2541 22.2215 15.795 22.8562 16.1876L22.9412 16.2402L22.8886 16.3252L21.5124 18.5511L21.471 18.6179L21.3963 18.5936C20.454 18.2864 19.453 18.1848 18.4653 18.2961L18.4045 18.3029L18.3707 18.2519L16.8127 15.9003L16.7693 15.8349L16.8225 15.7772C17.6482 14.8821 18.1078 13.7266 18.1163 12.5274C18.1247 11.3282 17.6813 10.1667 16.8683 9.26075C16.0552 8.35473 14.9282 7.76658 13.6984 7.60729C12.4686 7.44801 11.2213 7.72874 10.1904 8.39637C9.15967 9.06394 8.41647 10.0722 8.09922 11.2316C7.78198 12.391 7.91218 13.6226 8.46569 14.6959C9.01923 15.7692 9.95845 16.6109 11.108 17.0624C12.2575 17.5139 13.5379 17.5437 14.7086 17.1463L14.7778 17.1228L14.8212 17.1816L17.0674 20.2248L17.0676 20.2251C17.2119 20.4221 17.4167 20.571 17.6536 20.6503C17.8905 20.7295 18.1471 20.735 18.3875 20.666L18.3906 20.6651L18.3906 20.6651C19.4424 20.3996 20.5592 20.533 21.5131 21.0384L21.5154 21.0396C21.788 21.1931 22.1124 21.2366 22.4182 21.1603C22.7239 21.0841 22.9855 20.8947 23.147 20.634M23.147 20.634L23.2321 20.6866M23.147 20.634C23.147 20.634 23.147 20.634 23.1471 20.634M23.147 20.634L23.1471 20.634M23.2321 20.6866L23.1471 20.634M23.2321 20.6866L25.8288 16.4864C25.9152 16.3401 25.9703 16.1784 25.9909 16.0111C26.0115 15.8437 25.9972 15.674 25.9487 15.5122C25.9003 15.3503 25.8187 15.1995 25.7089 15.0687C25.5991 14.938 25.4632 14.8299 25.3094 14.751C22.8036 13.4934 22.7127 11.5945 25.3094 10.2615C25.6033 10.0893 25.8149 9.81137 25.8976 9.48846L23.1471 20.634M23.1471 20.634L25.7427 16.4356C25.7429 16.4353 25.743 16.435 25.7432 16.4347C25.8223 16.3003 25.8728 16.1521 25.8916 15.9988C25.9105 15.8452 25.8974 15.6895 25.8529 15.5408C25.8084 15.3921 25.7335 15.2535 25.6323 15.1331C25.5313 15.0127 25.4061 14.913 25.2642 14.8402C24.0009 14.2061 23.3081 13.3917 23.296 12.536C23.2838 11.6796 23.9538 10.8456 25.2612 10.1739M23.1471 20.634L25.2612 10.1739M25.2612 10.1739C25.5315 10.0147 25.725 9.75921 25.8007 9.46364C25.8767 9.16729 25.8284 8.85371 25.6659 8.59135L25.6659 8.59129L23.0691 4.39113L23.0689 4.39078C22.9073 4.12695 22.6435 3.93519 22.3348 3.85881C22.0261 3.78242 21.6988 3.82796 21.4252 3.98508L21.4215 3.98723L21.4214 3.98715C20.1073 4.66809 18.9388 4.74454 18.0908 4.25372C17.2415 3.7622 16.7507 2.72343 16.7441 1.25799L16.7441 1.25754C16.7441 0.9516 16.6186 0.657525 16.3942 0.440176C16.1697 0.222721 15.8646 0.1 15.5457 0.1H10.3523C10.0334 0.1 9.72819 0.222725 9.50368 0.440176C9.27929 0.657514 9.15389 0.951584 9.15389 1.25754C9.15389 2.71048 8.66967 3.75233 7.82226 4.24874C6.97581 4.74459 5.80378 4.67447 4.47653 3.98716L4.47342 3.98555L4.47345 3.9855C4.20086 3.83203 3.87645 3.78852 3.57062 3.86475C3.26489 3.94096 3.00334 4.13047 2.8418 4.39113L25.2612 10.1739ZM11.5039 14.6752C11.9473 14.9622 12.4682 15.1151 13.0009 15.1151C13.7151 15.1151 14.4007 14.8403 14.9066 14.3502C15.4127 13.8601 15.6976 13.1946 15.6976 12.5C15.6976 11.9821 15.5391 11.476 15.2424 11.0459C14.9457 10.6158 14.5243 10.2811 14.0319 10.0835C13.5395 9.88599 12.9979 9.83441 12.4754 9.93507C11.9529 10.0357 11.4725 10.2843 11.0952 10.6498C10.7178 11.0153 10.4604 11.4813 10.3561 11.9892C10.2518 12.4971 10.3053 13.0236 10.5099 13.5018C10.7144 13.98 11.0605 14.3882 11.5039 14.6752Z" fill="white" stroke="#6C80E7" stroke-width="0.2"/>
</svg>
